REM DIRINDEX 1\2\6,1\2\7,1\2\8,1\2\9,1\3\10,1\3\11,1\4\12,1\4\13,1\4\14,1\5\15,1\5\16,1\5\17
REM DIRNAME cjc029,folder01,folder02,folder03,folder04,folder05,folder06,folder07,folder08,folder09,folder10,folder11,folder12,folder13,folder14,folder15,folder16
TITLE ""
FILE "1400_3_sec12_1184_1200.mp3" MP3
  TRACK 01 AUDIO
    TITLE "0:"
    INDEX 01 00:00:00
  TRACK 02 AUDIO
    TITLE "17:cjc029_6807"
    INDEX 01 00:00:15
  TRACK 03 AUDIO
    TITLE "0:"
    INDEX 01 00:01:26
  TRACK 04 AUDIO
    TITLE "16:cjc029_6808"
    INDEX 01 00:01:34
  TRACK 05 AUDIO
    TITLE "0:"
    INDEX 01 00:02:38
  TRACK 06 AUDIO
    TITLE "17:cjc029_6809"
    INDEX 01 00:03:25
  TRACK 07 AUDIO
    TITLE "0:"
    INDEX 01 00:04:33
  TRACK 08 AUDIO
    TITLE "16:cjc029_6810"
    INDEX 01 00:04:42
  TRACK 09 AUDIO
    TITLE "0:"
    INDEX 01 00:05:63
  TRACK 10 AUDIO
    TITLE "17:cjc029_6811"
    INDEX 01 00:06:51
  TRACK 11 AUDIO
    TITLE "0:"
    INDEX 01 00:07:72
  TRACK 12 AUDIO
    TITLE "16:cjc029_6812"
    INDEX 01 00:08:01
  TRACK 13 AUDIO
    TITLE "0:"
    INDEX 01 00:09:30
  TRACK 14 AUDIO
    TITLE "17:cjc029_6813"
    INDEX 01 00:10:14
  TRACK 15 AUDIO
    TITLE "0:"
    INDEX 01 00:11:35
  TRACK 16 AUDIO
    TITLE "16:cjc029_6814"
    INDEX 01 00:11:42
  TRACK 17 AUDIO
    TITLE "0:"
    INDEX 01 00:12:60
  TRACK 18 AUDIO
    TITLE "17:cjc029_6815"
    INDEX 01 00:13:47
  TRACK 19 AUDIO
    TITLE "0:"
    INDEX 01 00:14:70
  TRACK 20 AUDIO
    TITLE "16:cjc029_6816"
    INDEX 01 00:15:01
  TRACK 21 AUDIO
    TITLE "0:"
    INDEX 01 00:16:20
  TRACK 22 AUDIO
    TITLE "17:cjc029_6817"
    INDEX 01 00:17:06
  TRACK 23 AUDIO
    TITLE "0:"
    INDEX 01 00:18:37
  TRACK 24 AUDIO
    TITLE "16:cjc029_6818"
    INDEX 01 00:18:44
  TRACK 25 AUDIO
    TITLE "0:"
    INDEX 01 00:19:52
  TRACK 26 AUDIO
    TITLE "17:cjc029_6819"
    INDEX 01 00:20:41
  TRACK 27 AUDIO
    TITLE "0:"
    INDEX 01 00:21:47
  TRACK 28 AUDIO
    TITLE "16:cjc029_6820"
    INDEX 01 00:21:53
  TRACK 29 AUDIO
    TITLE "0:"
    INDEX 01 00:22:64
  TRACK 30 AUDIO
    TITLE "17:cjc029_6821"
    INDEX 01 00:23:51
  TRACK 31 AUDIO
    TITLE "0:"
    INDEX 01 00:25:09
  TRACK 32 AUDIO
    TITLE "16:cjc029_6822"
    INDEX 01 00:25:21
  TRACK 33 AUDIO
    TITLE "0:"
    INDEX 01 00:26:38
  TRACK 34 AUDIO
    TITLE "17:cjc029_6823"
    INDEX 01 00:27:22
  TRACK 35 AUDIO
    TITLE "0:"
    INDEX 01 00:28:33
  TRACK 36 AUDIO
    TITLE "16:cjc029_6824"
    INDEX 01 00:28:37
  TRACK 37 AUDIO
    TITLE "0:"
    INDEX 01 00:29:68
  TRACK 38 AUDIO
    TITLE "17:cjc029_6825"
    INDEX 01 00:30:52
  TRACK 39 AUDIO
    TITLE "0:"
    INDEX 01 00:31:61
  TRACK 40 AUDIO
    TITLE "16:cjc029_6826"
    INDEX 01 00:31:67
  TRACK 41 AUDIO
    TITLE "0:"
    INDEX 01 00:33:26
  TRACK 42 AUDIO
    TITLE "17:cjc029_6827"
    INDEX 01 00:34:12
  TRACK 43 AUDIO
    TITLE "0:"
    INDEX 01 00:35:21
  TRACK 44 AUDIO
    TITLE "16:cjc029_6828"
    INDEX 01 00:35:25
  TRACK 45 AUDIO
    TITLE "0:"
    INDEX 01 00:36:44
  TRACK 46 AUDIO
    TITLE "17:cjc029_6829"
    INDEX 01 00:37:28
  TRACK 47 AUDIO
    TITLE "0:"
    INDEX 01 00:38:57
  TRACK 48 AUDIO
    TITLE "16:cjc029_6830"
    INDEX 01 00:38:63
  TRACK 49 AUDIO
    TITLE "0:"
    INDEX 01 00:40:09
  TRACK 50 AUDIO
    TITLE "17:cjc029_6831"
    INDEX 01 00:40:72
  TRACK 51 AUDIO
    TITLE "0:"
    INDEX 01 00:42:14
  TRACK 52 AUDIO
    TITLE "16:cjc029_6832"
    INDEX 01 00:42:21
  TRACK 53 AUDIO
    TITLE "0:"
    INDEX 01 00:43:40
  TRACK 54 AUDIO
    TITLE "17:cjc029_6833"
    INDEX 01 00:44:22
  TRACK 55 AUDIO
    TITLE "0:"
    INDEX 01 00:45:28
  TRACK 56 AUDIO
    TITLE "16:cjc029_6834"
    INDEX 01 00:45:33
  TRACK 57 AUDIO
    TITLE "0:"
    INDEX 01 00:46:51
  TRACK 58 AUDIO
    TITLE "17:cjc029_6835"
    INDEX 01 00:47:38
  TRACK 59 AUDIO
    TITLE "0:"
    INDEX 01 00:49:00
  TRACK 60 AUDIO
    TITLE "16:cjc029_6836"
    INDEX 01 00:49:06
  TRACK 61 AUDIO
    TITLE "0:"
    INDEX 01 00:50:29
  TRACK 62 AUDIO
    TITLE "17:cjc029_6837"
    INDEX 01 00:51:15
  TRACK 63 AUDIO
    TITLE "0:"
    INDEX 01 00:52:32
  TRACK 64 AUDIO
    TITLE "16:cjc029_6838"
    INDEX 01 00:52:37
  TRACK 65 AUDIO
    TITLE "0:"
    INDEX 01 00:53:49
  TRACK 66 AUDIO
    TITLE "17:cjc029_6839"
    INDEX 01 00:54:32
  TRACK 67 AUDIO
    TITLE "0:"
    INDEX 01 00:56:08
  TRACK 68 AUDIO
    TITLE "16:cjc029_6840"
    INDEX 01 00:56:12
  TRACK 69 AUDIO
    TITLE "0:"
    INDEX 01 00:57:01
